<svg aria-hidden="true" style="position:absolute;width:0;height:0" xmlns="http://www.w3.org/2000/svg" overflow="hidden"><defs>
<symbol id="icon-antenna" viewBox="0 0 32 32">
<path fill="var(--color1, #212121)" d="M30.773 22.098l-8.443-8.505.937-4.616c.225.09.485.144.758.146h.033a2.16 2.16 0 10-2.029-1.42l-.005-.015-4.96.606L8.973.161a.53.53 0 00-.376-.16.536.536 0 00-.373.155L6.712 1.66a.535.535 0 000 .754l.814.825C6.383 5.301 5.71 7.761 5.71 10.378c0 4.106 1.656 7.824 4.336 10.525l-.001-.001a.49.49 0 00.146.097 2.986 2.986 0 00-.052.546v6.188h-6.4a2.669 2.669 0 00-2.667 2.666v1.067c0 .295.239.534.534.534H26.14a.534.534 0 00.533-.534v-1.067a2.67 2.67 0 00-2.666-2.666h-6.4v-2.742a14.784 14.784 0 0010.166-1.502l-.077.039.818.823a.534.534 0 00.376.16.536.536 0 00.373-.155l1.512-1.504a.535.535 0 000-.754zM23.28 6.233a1.067 1.067 0 11.752 1.822h-.004a1.066 1.066 0 01-.747-1.822h-.002zm-1.256 3.504l-.598 2.946-1.175-1.183 1.774-1.763zm-.605-.902l-1.92 1.909-1.486-1.493 3.406-.416zM24.004 28.8a1.6 1.6 0 011.6 1.6v.534H2.138V30.4a1.6 1.6 0 011.6-1.6h20.267zm-7.466-2.134v1.067h-5.334v-1.067h5.334zM11.204 25.6v-4.053c0-1.294 1.196-2.346 2.667-2.346s2.667 1.053 2.667 2.346V25.6h-5.334zm6.4-1.696v-2.357c0-1.882-1.675-3.413-3.733-3.413h-.058c-1.353 0-2.54.707-3.213 1.771l-.009.016a13.817 13.817 0 01-3.812-9.55c0-2.314.567-4.496 1.569-6.414l-.036.077 18.602 18.709c-1.823.947-3.979 1.502-6.266 1.502-1.079 0-2.128-.124-3.136-.357l.093.018zm11.289-.684L7.836 2.039l.754-.752 7.935 7.98c.004 0 .006.007.01.01l13.114 13.191-.757.752z"/><path fill="var(--color2, #2196f3)" d="M13.876 20.267h-.007a1.6 1.6 0 00-.003 3.2h.007a1.6 1.6 0 00.002-3.2zm.373 1.978a.533.533 0 11-.378-.911.533.533 0 01.374.911h.005z"/></symbol>
<symbol id="icon-astronaut" viewBox="0 0 32 32">
<path fill="var(--color2, #2196f3)" d="M31.974 4.524a.535.535 0 00-.427-.362h-.003l-1.91-.278-.855-1.731c-.179-.365-.777-.365-.956 0l-.855 1.731-1.911.278a.534.534 0 00-.296.91l1.383 1.348-.326 1.903a.536.536 0 00.525.624.524.524 0 00.252-.064l-.003.001 1.708-.899 1.709.899a.534.534 0 00.773-.565v.003l-.326-1.903 1.383-1.348a.532.532 0 00.133-.551l.001.004zm-2.463 1.327a.534.534 0 00-.153.472l.191 1.114-1.001-.526a.523.523 0 00-.499.002l.003-.001-1.001.526.192-1.114a.533.533 0 00-.153-.472l-.811-.789 1.119-.163a.532.532 0 00.402-.292l.5-1.013.501 1.013a.532.532 0 00.402.292l1.119.162-.809.79zm-3.377 14.671h-1.067v1.067h1.067v-1.067zm0 2.134h-1.067v1.066h1.067v-1.066zm1.066-1.067h-1.067v1.067H27.2v-1.067zM25.067 21.589H24v1.067h1.067v-1.067zm-2.667 4.8h-1.067v1.067H22.4v-1.067zm0 2.134h-1.067v1.067H22.4v-1.067zm1.066-1.067h-1.067v1.067h1.067v-1.067zm-2.132 0h-1.067v1.067h1.067v-1.067zM16 24.256h-1.067v1.067H16v-1.067zm0 2.133h-1.067v1.067H16v-1.067zm1.067-1.067H16v1.067h1.067v-1.067zm-2.134 0h-1.066v1.067h1.066v-1.067zm-9.066-19.2H4.8v1.066h1.067V6.122zm0 2.134H4.8v1.066h1.067V8.256zm1.066-1.067H5.866v1.067h1.066V7.189zm-2.133 0H3.733v1.067H4.8V7.189z"/><path fill="var(--color1, #212121)" d="M24.715 14.16a1.774 1.774 0 00-1.179-.703l-.009-.001a1.769 1.769 0 00-1.344.355l.004-.003-1.253.96-1.898 1.417-1.358-.541c2.421-1.086 4.113-3.508 4.113-6.32 0-3.823-3.122-6.934-6.961-6.934S7.869 5.5 7.869 9.324c0 1.386.415 2.674 1.12 3.759l-2.768-.024c-.009 0-.016.005-.023.005a.517.517 0 00-.159.033l.004-.001c-.013.005-.026.007-.038.013-.006.003-.013.003-.019.006l-3.233 1.596-.001.001-1.893.91a.429.429 0 00-.064.036l.001-.001a1.782 1.782 0 00-.594 2.306l-.005-.01c.22.424.592.742 1.043.885l.013.003a1.772 1.772 0 001.388-.133l-.009.005 1.388-.738 2.264-1.169 1.357-.008-5.442 5.415-.001.001-1.339 1.333c-.303.299-.49.714-.49 1.173v.005a1.66 1.66 0 001.666 1.663h.004a1.67 1.67 0 001.18-.485l1.314-1.309 1.741-1.3.901.897-3.102 3.088a1.643 1.643 0 00-.491 1.173v.004a1.662 1.662 0 001.666 1.664h.003a1.67 1.67 0 001.18-.485l4.488-4.472c.007-.006.016-.009.022-.016l5.166-5.658 3.471.494a.474.474 0 00.262-.032c.018-.006.033-.015.05-.023.019-.01.039-.015.058-.027l3.213-2.133c.012-.008.018-.021.029-.03.013-.01.029-.014.041-.026l1.271-1.191c.348-.326.564-.787.564-1.3 0-.4-.132-.769-.355-1.067l.003.005zM2.13 17.77a.71.71 0 01-.558.052.717.717 0 01-.214-1.258l.002-.001 1.314-.632.316.924.133.389-.992.527zm3.497-1.828l-1.548.8-.255-.746-.184-.537 2.027-1.001-.04 1.484zm15.1-6.62c0 .918-.219 1.785-.599 2.56l-4.181-1.899a1.865 1.865 0 00-.782-1.384l-.006-.004 1.463-4.861c2.378.756 4.105 2.974 4.105 5.588zm-11.789 0c0-3.235 2.644-5.867 5.894-5.867.253 0 .5.022.745.053l-1.432 4.753c-.019 0-.037-.006-.057-.006h-.001a1.872 1.872 0 00-1.872 1.867 1.873 1.873 0 001.872 1.867h.001c.695 0 1.295-.383 1.618-.944l3.863 1.755a5.893 5.893 0 01-4.737 2.389c-3.25 0-5.894-2.632-5.894-5.867zm5.957.8c0 .441-.362.8-.806.8h-.001a.804.804 0 01-.804-.8c0-.441.361-.8.806-.8s.806.359.806.8zM2.464 25.146a.606.606 0 01-.855.001.591.591 0 010-.844l.962-.959.852.848-.959.955zm3.214 3.734a.606.606 0 01-.855.001.591.591 0 010-.844l.963-.959.852.848-.96.955zm3.482-3.469l-.001.001-1.765 1.76-.852-.848 1.765-1.757a.527.527 0 00.09-.136c.007-.014.02-.026.026-.04.016-.041.019-.085.026-.128.003-.025.014-.048.014-.073 0-.036-.013-.07-.02-.106-.006-.032-.006-.064-.019-.096a.536.536 0 00-.092-.138c-.01-.012-.014-.027-.025-.038h-.001l-.001-.002-1.607-1.6c-.017-.017-.039-.024-.058-.038a.563.563 0 00-.084-.057l-.003-.001a.559.559 0 00-.09-.031l-.003-.001a.502.502 0 00-.101-.02h-.002l-.023-.001a.603.603 0 00-.075.005h.003c-.036.005-.069.009-.104.021a.512.512 0 00-.097.046l.002-.001c-.02.011-.042.015-.061.029l-1.773 1.324-.901-.897 2.399-2.386 4.361 4.289-.928.919zm6.819-7.017c-.015-.002-.03.004-.045.003l-.026-.001a.562.562 0 00-.092.008h.003a.484.484 0 00-.187.07l.002-.001a.528.528 0 00-.083.062c-.013.011-.028.016-.04.029l-4.698 5.146-4.328-4.256 2.833-2.818a.535.535 0 00-.378-.911h-.002l-2.219.013.028-1.607 3.104.027a6.928 6.928 0 004.978 2.101h.003c.438 0 .864-.046 1.28-.122.04.032.08.064.129.085l2.41.96.152.759.178.885-3.003-.427zm4.041.178l-.313-1.558 1.446-1.08.946 1.257-2.08 1.381zm3.754-2.831l-.838.785-.931-1.237.831-.637a.735.735 0 01.543-.143.718.718 0 01.621.71.71.71 0 01-.226.521z"/><path fill="var(--color1, #212121)" d="M13.602 18.544l-2.143-2.134a.53.53 0 00-.752 0l-2.143 2.133a.535.535 0 000 .756l2.143 2.134a.53.53 0 00.752 0l2.143-2.134a.532.532 0 000-.756zm-2.519 1.759l-1.387-1.381 1.386-1.381 1.387 1.381-1.387 1.381zm6.081-15.232l-.258 1.036c.071.018 1.738.452 1.738 2.149h1.067c0-2.017-1.666-2.965-2.547-3.184zm2.547 4.251h-1.067v1.066h1.067V9.322z"/></symbol>
<symbol id="icon-client-1" viewBox="0 0 60 32">
<path  d="M24.533 7.111l2.598 2.46h7.248v6.862l2.598 2.46V7.112H24.533z"/><path  d="M22.4 9.467v11.444h12.089v-4.549l-7.281-6.893-4.808-.003zm9.786 9.771h-7.873v-7.697h.556v7.176h7.317v.521zm-6.305 3.796l.291-.599h.243l-.424.799v.465h-.22v-.465l-.424-.798h.244l.291.599zm1.248.371h-.489l-.102.294h-.228l.477-1.264h.197l.478 1.264h-.229l-.103-.294zm-.428-.177h.366l-.183-.524-.183.524zm1.294.13c0-.058.016-.112.048-.16a.778.778 0 01.188-.175.795.795 0 01-.101-.153l-.002-.005a.32.32 0 01-.029-.126c0-.099.03-.177.09-.235s.141-.087.243-.087c.092 0 .167.027.226.082s.089.121.089.201v.002a.275.275 0 01-.041.145l.001-.001a.477.477 0 01-.13.131l-.002.001-.086.063.244.288a.504.504 0 00.053-.231h.183a.634.634 0 01-.11.383l.186.22H28.8l-.071-.084a.517.517 0 01-.31.102h-.014.001a.438.438 0 01-.3-.099.331.331 0 01-.112-.249v-.012.001zm.418.19a.321.321 0 00.199-.071l-.276-.326-.027.019c-.069.053-.104.113-.104.181 0 .058.019.106.057.142a.207.207 0 00.141.055h.011zm-.116-.814c0 .049.03.11.09.183l.096-.066.027-.022a.157.157 0 00.054-.118v-.005-.001a.11.11 0 00-.037-.083.13.13 0 00-.09-.036h-.01a.123.123 0 00-.093.042.154.154 0 00-.037.1v.006zm2.296.554c-.013.135-.063.24-.149.316s-.202.113-.346.113a.505.505 0 01-.267-.071.481.481 0 01-.176-.201l-.001-.003a.726.726 0 01-.065-.302v-.123c0-.119.021-.224.063-.315a.478.478 0 01.455-.284c.139 0 .252.038.337.114s.134.183.148.321h-.219c-.011-.091-.037-.156-.08-.196s-.105-.061-.187-.061c-.095 0-.169.035-.22.105s-.077.172-.078.306v.112c0 .137.025.241.073.313s.121.108.215.108c.086 0 .151-.02.195-.058s.071-.103.082-.193h.219zm1.206-.188c0 .124-.021.233-.064.326s-.105.165-.184.215a.503.503 0 01-.274.075.508.508 0 01-.274-.075.503.503 0 01-.185-.211l-.001-.003a.739.739 0 01-.066-.308v-.012.001-.071c0-.123.021-.232.065-.326s.106-.166.185-.216c.08-.05.171-.076.274-.076s.194.025.273.075c.08.049.141.121.185.213s.065.201.066.324v.07zm-.22-.066a.553.553 0 00-.08-.322.258.258 0 00-.213-.112h-.012.001-.009a.26.26 0 00-.213.111l-.001.001a.55.55 0 00-.082.315v.073c0 .139.027.246.081.322s.129.114.225.114c.097 0 .172-.037.224-.111s.079-.182.079-.325v-.066z"/></symbol>
<symbol id="icon-client-2" viewBox="0 0 60 32">
<path  d="M29.147 7.799h.048c.09 0 .187.009.283.017.466.034.897.101 1.314.201l-.055-.011V6.988a7.522 7.522 0 00-1.3-.207 8.91 8.91 0 00-.513-.025h-.164c-.88.004-1.756.116-2.609.336-.971.242-1.902.621-2.768 1.126v10.097a10.96 10.96 0 012.56-1.011l.078-.017a11.144 11.144 0 012.184-.339l.03-.001h.03c.125-.006.25-.01.379-.011v-1.035a12.208 12.208 0 00-2.963.402l.085-.019c-.348.091-.684.188-1 .297l-.36.122V8.83l.154-.074a9.86 9.86 0 013.712-.953l.027-.001.016-.001.017.001h-.001c.143-.007.287-.011.428-.011h.162c.075.002.149.004.224.008z"/><path  d="M31.684 8.865h-.009a9.214 9.214 0 01-1.551-.13l.054.008a8.34 8.34 0 01-.526-.106l.056.011v9.981c.647.16 1.312.238 1.979.233a10.672 10.672 0 002.683-.352l-.074.017a10.547 10.547 0 002.818-1.153l-.049.027V7.485c-.758.421-1.635.773-2.559 1.011l-.078.017c-.896.23-1.817.348-2.742.352zm3.991.172l.36-.121v7.875l-.154.074a9.429 9.429 0 01-1.771.646l-.069.015a9.584 9.584 0 01-2.354.305c-.238 0-.473-.01-.701-.03l-.246-.022V9.68l.287.019c.19.013.411.02.634.02h.026-.001a12.2 12.2 0 003.074-.402l-.085.019c.336-.089.669-.188 1-.299zM24.084 21.764a.53.53 0 00-.382-.162h-.019.001-.008a.593.593 0 00-.227.045l.004-.001a.524.524 0 00-.295.296l-.001.004a.589.589 0 00-.042.223v1.349a.63.63 0 00.053.277.482.482 0 00.32.277.77.77 0 00.202.028.568.568 0 00.559-.568v-.151h-.353v.127a.314.314 0 01-.022.115l.001-.002a.212.212 0 01-.051.076.25.25 0 01-.147.052l-.021.001a.178.178 0 01-.144-.073.313.313 0 01-.047-.167v-.014.001-1.258a.44.44 0 01.043-.202.181.181 0 01.174-.082h-.001.007c.062 0 .116.03.15.076a.283.283 0 01.059.174v.125h.349v-.138-.006a.625.625 0 00-.045-.234l.002.004a.565.565 0 00-.118-.19zm2.095-.015a.623.623 0 00-.401-.149.6.6 0 00-.21.038.556.556 0 00-.322.296l-.001.003a.63.63 0 00-.052.261v1.294a.54.54 0 00.188.446.59.59 0 00.396.151.603.603 0 00.402-.152l-.001.001a.528.528 0 00.133-.181.62.62 0 00.051-.265v-1.294-.012a.626.626 0 00-.053-.253l.002.004a.586.586 0 00-.133-.189zm-.164 1.744l.001.02a.23.23 0 01-.071.167.256.256 0 01-.332-.001.23.23 0 01-.071-.167l.001-.021v.001-1.294l-.001-.02a.23.23 0 01.071-.167.256.256 0 01.332.001.23.23 0 01.071.167l-.001.021v-.001 1.294zm2.916.578v-2.45h-.339l-.445 1.297h-.006l-.449-1.296h-.336v2.449h.35v-1.49h.006l.343 1.053h.174l.346-1.053h.006v1.49h.35zm1.987-2.278a.488.488 0 00-.198-.134.764.764 0 00-.24-.038h-.533v2.45h.349v-.957h.18a.638.638 0 00.315-.067.511.511 0 00.19-.185l.001-.002a.586.586 0 00.08-.213 1.7 1.7 0 00.019-.256v-.023.001a1.377 1.377 0 00-.034-.35.52.52 0 00-.129-.225zm-.18.747a.294.294 0 01-.033.129l.001-.002a.193.193 0 01-.089.085h-.001a.348.348 0 01-.147.031h-.019.001-.159v-.833h.197a.33.33 0 01.143.032l-.002-.001a.2.2 0 01.081.089v.001a.38.38 0 01.031.137v.163c0 .057.004.116 0 .168h-.004zm1.833-.919h-.286l-.54 2.45h.349l.102-.526h.476l.103.526h.349l-.553-2.45zm-.321 1.59l.172-.888h.006l.171.888h-.349zm2.577-.114h-.006l-.527-1.476h-.335v2.45h.349v-1.473h.007l.533 1.473h.329v-2.449h-.349v1.476zm2.132-1.476l-.281.974h-.007l-.281-.974h-.37l.479 1.414v1.035h.349v-1.035l.479-1.414h-.369zm-13.848 3.141h.168v.472h.114v-.472h.167v-.097h-.449v.097zm1.414-.096l-.22.569h.121l.047-.129h.227l.048.129h.124l-.226-.569h-.121zm-.018.343l.077-.211.077.211h-.155zm1.416.016h.132v.073a.214.214 0 01-.135.048h-.008a.145.145 0 01-.113-.054.24.24 0 01-.042-.136v-.013.001c0-.127.055-.19.164-.19l.012-.001a.12.12 0 01.116.09v.001l.112-.022c-.024-.111-.104-.167-.241-.167h-.008a.289.289 0 00-.191.073.276.276 0 00-.082.219v-.001.013c0 .076.028.146.074.201.05.052.12.084.198.084l.019-.001h-.001.01a.339.339 0 00.232-.091v-.224h-.246v.096zm1.427-.359h-.114v.569h.398v-.097h-.283v-.472zm1.207 0h-.115v.569h.115v-.569zm1.18.379l-.233-.38h-.111v.569h.107v-.372l.229.372h.114v-.569h-.105v.38zm1.067-.061h.283v-.097h-.283v-.124h.305v-.097h-.42v.569h.432v-.097h-.316v-.154zm2.587-.094h-.224v-.224h-.114v.569h.114v-.249h.224v.249h.114v-.569h-.114v.224zm1.073.094h.284v-.097h-.284v-.124h.306v-.097h-.42v.569h.431v-.097h-.316v-.154zm1.455 0c.099-.016.149-.068.149-.158l.001-.017a.136.136 0 00-.056-.11.312.312 0 00-.144-.034l-.023.001h.001-.241v.569h.114v-.238h.031c.022 0 .044.005.063.013h-.001c.017.01.031.025.041.042l.124.181h.137l-.069-.111a.398.398 0 00-.125-.136l-.001-.001zm-.115-.079h-.085v-.143h.09l.024-.001c.033 0 .064.005.094.015l-.002-.001a.073.073 0 01.025.056v.002a.077.077 0 01-.03.057.31.31 0 01-.094.014l-.023-.001h.001zm1.213.079h.283v-.097h-.283v-.124h.306v-.097h-.421v.569h.432v-.097h-.317v-.154z"/></symbol>
<symbol id="icon-client-3" viewBox="0 0 60 32">
<path  d="M25.367 23.394a.04.04 0 01.028.012l.073.077a.588.588 0 01-.206.145.727.727 0 01-.292.052h-.015a.71.71 0 01-.265-.051l.005.002a.598.598 0 01-.339-.346l-.001-.004a.764.764 0 01-.046-.263v-.01V22.998c0-.095.018-.185.052-.267l-.002.005a.628.628 0 01.361-.351.797.797 0 01.282-.049.713.713 0 01.263.044c.072.03.139.071.197.123l-.061.082a.054.054 0 01-.015.015.041.041 0 01-.022.007h-.003a.062.062 0 01-.027-.009l-.033-.022-.046-.028a.489.489 0 00-.141-.048h-.003a.62.62 0 00-.1-.009h-.016a.526.526 0 00-.199.038l.004-.001a.455.455 0 00-.262.267.619.619 0 00-.038.216.614.614 0 00.038.22c.022.06.057.116.101.163a.414.414 0 00.152.101c.06.024.124.036.188.035a.842.842 0 00.112-.007.42.42 0 00.241-.112.053.053 0 01.035-.014zm2.113-.386a.739.739 0 01-.049.271.624.624 0 01-.35.347l-.004.001a.799.799 0 01-.562-.002l.006.002a.617.617 0 01-.352-.347l-.001-.004a.764.764 0 01.002-.548l-.002.005a.623.623 0 01.139-.213.633.633 0 01.211-.132l.004-.001a.799.799 0 01.562.002l-.006-.002a.617.617 0 01.354.349.73.73 0 01.05.273zm-.192 0v-.011a.63.63 0 00-.036-.21l.001.004a.434.434 0 00-.25-.265L27 22.525a.571.571 0 00-.408.001l.004-.001a.429.429 0 00-.252.263l-.001.003a.706.706 0 000 .436.43.43 0 00.25.264l.003.001a.596.596 0 00.404 0 .415.415 0 00.253-.265.623.623 0 00.035-.218zm1.633.229l.02.049a2.405 2.405 0 01.046-.099l-.001.002.467-.809c.009-.014.017-.023.027-.025s.02-.004.032-.004H29.657v1.316h-.164v-1.008l-.001-.023.001-.024v.001l-.47.821a.074.074 0 01-.066.041h-.027a.078.078 0 01-.068-.04l-.484-.826v1.057h-.158v-1.314H28.365c.011 0 .022.002.032.005h-.001a.05.05 0 01.025.025l.477.81a.212.212 0 01.023.045l.001.002zm1.759-.065v.493h-.183v-1.314h.424c.075 0 .148.01.218.03l-.006-.001a.44.44 0 01.161.082.33.33 0 01.091.129.443.443 0 01-.003.336.367.367 0 01-.098.131h-.001a.445.445 0 01-.159.086l-.003.001a.714.714 0 01-.22.031l-.221-.004zm0-.142h.221a.456.456 0 00.142-.02.304.304 0 00.103-.057.228.228 0 00.062-.085l.001-.002a.27.27 0 00.022-.108v-.004-.013a.248.248 0 00-.019-.095l.001.002a.255.255 0 00-.064-.09.363.363 0 00-.218-.072l-.029.001h.001-.221v.542zm2.458.636h-.147a.071.071 0 01-.038-.012.089.089 0 01-.024-.03l-.124-.318h-.624l-.129.318a.066.066 0 01-.023.029.065.065 0 01-.039.013h-.146l.549-1.317h.19l.556 1.317zm-.905-.489h.516l-.218-.536a.939.939 0 01-.04-.117l-.001-.006-.021.069a.452.452 0 01-.022.06l.002-.004-.216.535zm1.695-.821a.081.081 0 01.028.024l.8.992V22.35h.164v1.317h-.093a.078.078 0 01-.035-.008h.001a.113.113 0 01-.029-.024l-.799-.991a.338.338 0 010 .045v.979h-.164v-1.317h.097c.011 0 .022.002.033.006zm2.34.786v.523h-.183v-.523l-.506-.793h.168c.013 0 .026.004.036.012.01.008.018.018.024.029v.001l.316.511a.765.765 0 01.056.116l.024-.057a.425.425 0 01.031-.06l.312-.515a.131.131 0 01.024-.028.057.057 0 01.036-.013h.169l-.507.796zm-7.437-3.002c.08.01.16.018.241.025 1.234-.526 2.278-1.387 3.001-2.475s1.094-2.355 1.066-3.643l-1.36-1.296c.09.427.142.918.142 1.421a7.17 7.17 0 01-.532 2.72l.017-.048a7.566 7.566 0 01-2.575 3.296z"/><path  d="M28.345 20.08l.037.007a7.332 7.332 0 002.719-3.394 6.831 6.831 0 00.473-2.52c0-.619-.081-1.22-.233-1.791l.011.049-1.937-1.845a8.455 8.455 0 01.962 3.944c0 .335-.019.666-.057.991l.004-.04a8.707 8.707 0 01-1.979 4.6zm6.569-4.512a6.689 6.689 0 01-2.279 3.639 7.265 7.265 0 01-1.047.722l-.036.019a6.479 6.479 0 002.525-1.362l-.008.006a6.096 6.096 0 001.615-2.235l.015-.04-.786-.748z"/><path  d="M34.606 15.36l-1.119-1.066a6.534 6.534 0 01-1.065 3.463l.015-.025a7.002 7.002 0 01-2.737 2.454h.006c.251 0 .501-.014.751-.043a6.916 6.916 0 002.699-1.887l.007-.008a6.403 6.403 0 001.436-2.847l.008-.043zm-6.099-5.554l-1.334-1.273c-1.193.439-2.219 1.211-2.943 2.215s-1.115 2.193-1.118 3.411c.005 1.347.48 2.652 1.351 3.712s2.089 1.812 3.46 2.139c1.224-1.42 1.94-3.176 2.046-5.011s-.407-3.654-1.461-5.193zm9.182 5.358c-.005-1.597-.673-3.128-1.858-4.257s-2.792-1.766-4.468-1.771a6.51 6.51 0 00-2.265.402l8.17 7.783a5.613 5.613 0 00.422-2.155v-.002z"/></symbol>
<symbol id="icon-client-4" viewBox="0 0 60 32">
<path  d="M20.41 13.095h-.001c-.805 0-1.457.636-1.457 1.419v.001c0 .784.652 1.419 1.457 1.419h.001c.804 0 1.456-.636 1.456-1.419v-.001c0-.784-.652-1.419-1.456-1.419zm10.75-.454c-.003-1.089-.447-2.132-1.237-2.902a4.277 4.277 0 00-5.956-.001 4.063 4.063 0 00-1.237 2.903v6.004s8.43-.915 8.431-6.003v-.001zM16 20.616c.004.793.333 1.507.86 2.019l.001.001a2.975 2.975 0 004.144 0l-.001.001a2.823 2.823 0 00.861-2.018V16.44s-5.866.638-5.866 4.177zm2.933.748h-.001a.775.775 0 01-.428-.128l.003.002a.759.759 0 01-.281-.331l-.002-.005a.716.716 0 01-.042-.437l-.001.005a.742.742 0 01.21-.383.775.775 0 01.389-.204l.005-.001a.784.784 0 01.789.319.728.728 0 01.069.708l.002-.005a.75.75 0 01-.416.407.774.774 0 01-.294.057v-.003zm5.988-.464h-.6v.62h-.313v-1.516h.988v.253h-.675v.391h.6v.252zm1.502-.104c0 .149-.026.28-.079.393s-.128.199-.227.26a.615.615 0 01-.326.092h-.013.001a.598.598 0 01-.563-.345l-.002-.004a.882.882 0 01-.083-.375v-.013.001-.075c0-.149.027-.281.08-.394a.595.595 0 01.566-.353.62.62 0 01.336.092c.099.06.175.148.228.261a.902.902 0 01.081.393v.068zm-.317-.069c0-.159-.028-.28-.085-.363a.28.28 0 00-.232-.124h-.013.001-.012a.279.279 0 00-.23.122l-.001.001c-.057.081-.086.201-.086.358v.074c0 .155.028.275.085.361s.139.128.246.128h.012a.276.276 0 00.229-.122l.001-.001c.056-.083.085-.203.085-.361v-.074zm1.33.395v-.009a.158.158 0 00-.062-.126.815.815 0 00-.225-.1 1.586 1.586 0 01-.266-.108l.009.004c-.172-.093-.258-.218-.258-.376 0-.082.023-.155.069-.219s.113-.115.199-.151c.087-.036.184-.054.292-.054s.205.02.289.059a.436.436 0 01.268.41h-.313a.203.203 0 00-.065-.161.269.269 0 00-.185-.059.283.283 0 00-.178.049.152.152 0 00-.064.124v.004c0 .049.025.09.074.124s.123.065.22.094c.178.053.307.12.389.199s.122.178.122.295c0 .132-.05.235-.149.309s-.233.112-.401.112a.77.77 0 01-.319-.064.523.523 0 01-.219-.174l-.001-.002a.448.448 0 01-.075-.249v-.009h.314c0 .167.1.251.3.251a.29.29 0 00.174-.045.148.148 0 00.063-.121v-.006zm1.668-.866h-.465v1.263h-.313v-1.263h-.458v-.253h1.236v.253zm1.092.607h-.6v.406h.704v.251h-1.017v-1.516h1.015v.253h-.702v.361h.6v.245zm.849.102h-.249v.555h-.313v-1.516h.564c.179 0 .317.04.415.12s.146.193.146.338c0 .103-.022.19-.068.26a.455.455 0 01-.2.163l-.003.001.328.62v.015h-.335l-.284-.555zm-.249-.254h.252c.078 0 .139-.02.182-.059a.215.215 0 00.065-.154v-.012.001c0-.071-.021-.128-.061-.169s-.102-.061-.186-.061h-.251v.455zm1.893.274v.534h-.313v-1.516h.592c.114 0 .214.021.3.063a.469.469 0 01.27.44c0 .149-.051.266-.153.352s-.242.128-.422.128h-.274zm0-.253h.279c.083 0 .146-.02.188-.059a.21.21 0 00.066-.166v-.011a.252.252 0 00-.066-.17.247.247 0 00-.181-.071h-.286v.476zm1.977.131h-.6v.406h.704v.251h-1.017v-1.516h1.015v.253h-.702v.361h.6v.245zm1.451-.607h-.465v1.263h-.313v-1.263h-.458v-.253h1.236v.253zm1.091.607h-.6v.406h.704v.251h-1.017v-1.516h1.014v.253h-.702v.361h.6v.245zm.849.102h-.249v.555h-.312v-1.516h.564c.179 0 .317.04.415.12s.146.193.146.338c0 .103-.023.19-.068.26a.455.455 0 01-.2.163l-.003.001.328.62v.015h-.336l-.284-.555zm-.249-.254h.252a.26.26 0 00.182-.059.215.215 0 00.065-.154v-.012.001c0-.071-.021-.128-.062-.169s-.102-.061-.186-.061h-.251v.455zm1.836.411v-.009a.158.158 0 00-.062-.126.815.815 0 00-.225-.1 1.633 1.633 0 01-.267-.108l.009.004c-.172-.093-.258-.218-.258-.376 0-.082.023-.155.069-.219s.113-.115.199-.151a.756.756 0 01.292-.054h.012c.1 0 .196.022.281.061l-.004-.002a.436.436 0 01.268.41h-.313a.203.203 0 00-.065-.161.269.269 0 00-.185-.059.283.283 0 00-.178.049.15.15 0 00-.063.123v.005c0 .049.025.09.074.124s.123.065.22.094c.178.053.307.12.389.199s.122.178.122.295c0 .132-.049.235-.149.309s-.233.112-.401.112h-.01a.757.757 0 01-.313-.066l.005.002a.517.517 0 01-.219-.174l-.001-.002a.446.446 0 01-.075-.249v-.009h.314c0 .167.1.251.3.251a.293.293 0 00.174-.045.147.147 0 00.062-.121v-.007z"/></symbol>
<symbol id="icon-client-5" viewBox="0 0 60 32">
<path  d="M21.507 21.788a.557.557 0 01.123.359l.001.027a.57.57 0 01-.191.426h-.001a.825.825 0 01-.554.166h-.974v-2.277h.954a.805.805 0 01.531.153l-.002-.002a.52.52 0 01.186.398l-.001.029v-.001a.528.528 0 01-.111.348.52.52 0 01-.291.178.55.55 0 01.329.195zm-1.143-.344h.408a.383.383 0 00.259-.076.272.272 0 00.088-.2l-.001-.024v.001l.001-.02a.278.278 0 00-.087-.203.388.388 0 00-.235-.078l-.034.001h.001-.401v.597zm.707.873a.28.28 0 00.097-.213l-.001-.019v-.016a.285.285 0 00-.099-.217.415.415 0 00-.251-.083l-.028.001h.001-.427v.626h.433a.428.428 0 00.274-.079zm2.386.45l-.53-.89h-.199v.89h-.457V20.49h.864l.059-.002c.207 0 .397.074.544.197l-.001-.001a.727.727 0 01.062.944l.001-.002a.699.699 0 01-.412.231l.565.91h-.497zm-.73-1.201h.373c.26 0 .389-.115.389-.345l.001-.019a.343.343 0 00-.096-.237.405.405 0 00-.259-.094l-.037.002h.002-.378l.005.693zm3.225.742h-.91l-.161.459h-.479l.836-2.252h.517l.832 2.252h-.479l-.157-.458zm-.122-.345l-.332-.961-.332.961h.665zm3.246.804h-.454l-1.016-1.548v1.548h-.452V20.49h.452l1.016 1.557V20.49h.453v2.277zm2.586-.546a.985.985 0 01-.405.399l-.005.003c-.197.1-.416.149-.637.143h-.807v-2.277H30.65c.219 0 .427.052.61.144l-.008-.004a.963.963 0 01.41.397 1.327 1.327 0 01-.003 1.202l.003-.008zm-.519-.054a.834.834 0 00-.001-1.088l.001.001a.783.783 0 00-.569-.193h.002-.315v1.474h.315a.781.781 0 00.568-.194l-.001.001zM26.236 7.822s5.849 2.217 5.725 5.426v5.427s-5.845-2.219-5.723-5.427l-.002-5.426zm10.936 9.582a7.908 7.908 0 013.681-1.372l.035-.003V14.33a7.684 7.684 0 00-3.698 3.043l-.019.031z"/><path  d="M36.509 17.916a8.009 8.009 0 014.325-3.924l.055-.018V9.079s-8.331 3.158-8.154 7.727v7.727s.371-.141.955-.406c0-.247 0-.496.027-.747a8.04 8.04 0 012.781-5.456l.011-.009z"/><path  d="M35.717 20.787a8.016 8.016 0 01.291-1.582 7.446 7.446 0 00-1.764 4.659v.008a22.72 22.72 0 001.716-.909l-.114.062a7.775 7.775 0 01-.157-1.577c0-.232.01-.462.029-.69l-.002.03zm.331.027a7.74 7.74 0 00.11 2.074l-.008-.048c2.276-1.367 4.833-3.48 4.735-6.033v-.222a7.452 7.452 0 00-4.333 2.034l.002-.002a7.448 7.448 0 00-.506 2.171l-.002.027z"/></symbol>
<symbol id="icon-clock" viewBox="0 0 31 32">
<path d="M30.839 15.301C30.838 6.849 23.984-.002 15.531 0S.228 6.855.23 15.308c.002 6.788 4.422 12.543 10.541 14.545l.108.031a.667.667 0 00.529-.065.636.636 0 00.283-.357l3.865-12.25a1.913 1.913 0 10-.852-3.63l.011-.005L9.609 8.47a.638.638 0 00-.902.902l5.103 5.109a1.873 1.873 0 00.533 2.306l.004.003-3.683 11.673C3.386 25.782-.34 17.709 2.34 10.431S13.094-.573 20.372 2.108c7.278 2.681 11.004 10.754 8.323 18.032-1.345 3.581-4.003 6.406-7.374 7.938l-.088.036-.398-1.874a.639.639 0 00-1.05-.343l.001-.001-3.837 3.426a.637.637 0 00.227 1.083l.005.001 4.899 1.563a.637.637 0 00.818-.744l.001.004-.391-1.839c5.528-2.374 9.328-7.772 9.328-14.057v-.034.002zm-15.304-.637a.638.638 0 010 1.276.638.638 0 010-1.276zm2.1 14.864l2.184-1.948.603 2.84-2.787-.892z"/></symbol>
<symbol id="icon-diagramm" viewBox="0 0 41 32">
    <path d="M2.073 31.932h33.168a2.073 2.073 0 002.073-2.073v-2.764a2.073 2.073 0 00-2.073-2.073h-.691V7.789l3.925-3.718a2.085 2.085 0 10-.963-.976l-.005-.013-2.957 2.803V4.291a2.073 2.073 0 00-2.073-2.073H4.837a2.073 2.073 0 00-2.073 2.073v20.73h-.691A2.073 2.073 0 000 27.094v2.764c0 1.145.928 2.073 2.073 2.073zM39.387 1.529a.69.69 0 110 1.382.69.69 0 110-1.382zM4.146 4.293a.69.69 0 01.691-.691h27.64a.69.69 0 01.691.691v2.902l-1.382 1.313V5.675a.692.692 0 00-.692-.692H6.219a.691.691 0 00-.692.691v17.275c0 .382.31.691.692.691h24.875a.691.691 0 00.692-.691V10.408l1.382-1.31v15.923H4.146V4.293zm6.219 8.983h-.006a2.073 2.073 0 101.442 3.562l-.001.001 2.402 1.205a.692.692 0 00.825-.159l5.106-5.744 5.019 3.761c.27.201.645.18.889-.051l4.362-4.132v10.54H6.91V6.366h23.493v3.449l-4.889 4.63-5.061-3.794a.69.69 0 00-.931.092l-.001.001-5.176 5.824-1.935-.968c.013-.073.022-.159.026-.247v-.004a2.073 2.073 0 00-2.073-2.073zm.691 2.073a.69.69 0 11-1.382 0 .69.69 0 111.382 0zm4.146 11.056h6.91v.691a.69.69 0 01-.69.691h-5.528a.69.69 0 01-.691-.691v-.691zm-13.819.691a.69.69 0 01.69-.691H13.82v.691c0 1.145.928 2.073 2.073 2.073h5.528a2.073 2.073 0 002.073-2.073v-.691h11.747a.69.69 0 01.691.691v2.764a.69.69 0 01-.691.691H2.074h-.001a.69.69 0 01-.691-.691v-2.764z"/></symbol>
<symbol id="icon-envelope" viewBox="0 0 43 32">
<path  d="M38.667 0H4C1.795 0 0 1.675 0 3.733v22.405c0 2.059 1.795 3.733 4 3.733h34.667c2.205 0 4-1.675 4-3.733V3.733c0-2.059-1.795-3.733-4-3.733zm0 2.488c.181 0 .355.037.512.099L21.334 17.024 3.489 2.587c.152-.062.327-.098.512-.099h34.667zm0 24.893H4c-.736 0-1.333-.557-1.333-1.243V5.215L20.459 19.61c.235.189.537.304.866.304h.017c.329 0 .631-.115.869-.306l-.003.002L40 5.215v20.923c0 .685-.597 1.243-1.333 1.243z"/></symbol>
<symbol id="icon-facebook" viewBox="0 0 32 32">
<path  d="M21.329 5.313h2.921V.225C23.746.156 22.013 0 19.994 0c-4.212 0-7.097 2.649-7.097 7.519V12H8.249v5.688h4.648V32h5.699V17.689h4.46l.708-5.688h-5.169V8.082c.001-1.644.444-2.769 2.735-2.769z"/></symbol>
<symbol id="icon-instagramm" viewBox="0 0 32 32">
<path  d="M31.969 9.408c-.075-1.7-.35-2.869-.744-3.882a7.806 7.806 0 00-1.851-2.838A7.867 7.867 0 0026.542.844C25.523.45 24.36.175 22.66.1 20.947.019 20.403 0 16.059 0s-4.888.019-6.595.094c-1.7.075-2.869.35-3.882.744a7.803 7.803 0 00-2.838 1.85A7.867 7.867 0 00.9 5.52C.506 6.539.231 7.702.156 9.402c-.081 1.713-.1 2.257-.1 6.601s.019 4.888.094 6.595c.075 1.7.35 2.869.744 3.882a7.895 7.895 0 001.85 2.838 7.867 7.867 0 002.832 1.844c1.019.394 2.182.669 3.882.744 1.706.075 2.25.094 6.595.094s4.888-.019 6.595-.094c1.7-.075 2.869-.35 3.882-.744a8.184 8.184 0 004.682-4.682c.394-1.019.669-2.182.744-3.882.075-1.707.094-2.251.094-6.595s-.006-4.888-.081-6.595zm-2.882 13.065c-.069 1.563-.331 2.407-.55 2.969a5.31 5.31 0 01-3.038 3.038c-.563.219-1.413.481-2.969.55-1.688.075-2.194.094-6.464.094s-4.782-.019-6.464-.094c-1.563-.069-2.407-.331-2.969-.55a4.926 4.926 0 01-1.838-1.194 4.974 4.974 0 01-1.194-1.838c-.219-.563-.481-1.413-.55-2.969-.075-1.688-.094-2.194-.094-6.464s.019-4.782.094-6.464c.069-1.563.331-2.407.55-2.969a4.868 4.868 0 011.2-1.838A4.974 4.974 0 016.639 3.55c.563-.219 1.413-.481 2.969-.55 1.688-.075 2.194-.094 6.464-.094 4.276 0 4.782.019 6.464.094 1.563.069 2.407.331 2.969.55a4.914 4.914 0 011.838 1.194 4.974 4.974 0 011.194 1.838c.219.563.481 1.413.55 2.969.075 1.688.094 2.194.094 6.464s-.019 4.77-.094 6.458z"/><path  d="M16.059 7.783c-4.538 0-8.22 3.682-8.22 8.22s3.682 8.22 8.22 8.22c4.539 0 8.22-3.682 8.22-8.22s-3.682-8.22-8.22-8.22zm0 13.552a5.333 5.333 0 010-10.664 5.333 5.333 0 010 10.664zM26.524 7.458a1.919 1.919 0 11-3.838 0 1.919 1.919 0 013.838 0z"/></symbol>
<symbol id="icon-linkedin" viewBox="0 0 32 32">
<path  d="M31.992 32v-.001H32V20.263c0-5.741-1.236-10.164-7.948-10.164-3.227 0-5.392 1.771-6.276 3.449h-.093v-2.913h-6.364v21.364h6.627V21.42c0-2.785.528-5.479 3.977-5.479 3.399 0 3.449 3.179 3.449 5.657v10.401h6.62zM.528 10.636h6.635V32H.528V10.636zM3.843 0C1.722 0 0 1.721 0 3.843s1.721 3.879 3.843 3.879c2.121 0 3.843-1.757 3.843-3.879A3.846 3.846 0 003.843 0z"/></symbol>
<symbol id="icon-smartphone" viewBox="0 0 21 32">
<path  d="M18.133 0H3.2C1.436 0 0 1.34 0 2.987v25.89c0 1.647 1.436 2.987 3.2 2.987h14.933c1.764 0 3.2-1.34 3.2-2.987V2.987c0-1.647-1.436-2.987-3.2-2.987zM3.2 1.99h14.933c.589 0 1.067.448 1.067.996v20.911H2.133V2.986c0-.548.478-.996 1.067-.996zm14.933 27.883H3.2c-.589 0-1.067-.448-1.067-.996V25.89H19.2v2.987c0 .548-.478.994-1.067.994z"/><path fill="var(--color4, #757575)" d="M5.022 27.177a.947.947 0 010 1.407l-.001.001c-.198.182-.464.293-.755.293s-.557-.111-.756-.294l.001.001a.947.947 0 010-1.407l.001-.001c.198-.182.464-.293.755-.293s.557.111.756.294l-.001-.001z"/></symbol>
<symbol id="icon-twitter" viewBox="0 0 32 32">
<path  d="M32 6.078c-1.19.522-2.458.868-3.78 1.036a6.523 6.523 0 002.886-3.626 13.11 13.11 0 01-4.16 1.588A6.574 6.574 0 0022.154 3c-3.632 0-6.556 2.948-6.556 6.562 0 .52.044 1.02.152 1.496-5.454-.266-10.28-2.88-13.522-6.862a6.605 6.605 0 00-.898 3.316 6.57 6.57 0 002.914 5.452 6.479 6.479 0 01-2.964-.808v.072c0 3.188 2.274 5.836 5.256 6.446a6.548 6.548 0 01-1.72.216 5.8 5.8 0 01-1.242-.112c.85 2.598 3.262 4.508 6.13 4.57a13.182 13.182 0 01-8.134 2.798c-.538 0-1.054-.024-1.57-.09A18.469 18.469 0 0010.064 29c12.072 0 18.672-10 18.672-18.668 0-.29-.01-.57-.024-.848A13.087 13.087 0 0032 6.078z"/></symbol>
<symbol id="icon-client-6" viewBox="0 0 60 32">
<path   d="M30.485 15.414c-0.128-0.184-0.205-0.412-0.205-0.658 0-0.026 0.001-0.051 0.003-0.077l-0 0.003v-1.061c0-0.325 0.067-0.572 0.202-0.741s0.366-0.253 0.693-0.252c0.308 0 0.526 0.072 0.655 0.216 0.141 0.183 0.209 0.408 0.193 0.634v0.249h-0.55v-0.252c0-0.010 0-0.021 0-0.033 0-0.076-0.006-0.15-0.017-0.222l0.001 0.008c-0.009-0.059-0.037-0.11-0.078-0.147l-0-0c-0.049-0.036-0.11-0.058-0.176-0.058-0.008 0-0.016 0-0.024 0.001l0.001-0c-0.007-0.001-0.015-0.001-0.023-0.001-0.070 0-0.135 0.023-0.188 0.062l0.001-0.001c-0.046 0.041-0.079 0.097-0.091 0.16l-0 0.002c-0.016 0.086-0.023 0.174-0.022 0.262v1.287c-0.009 0.124 0.015 0.248 0.070 0.361 0.028 0.038 0.065 0.068 0.109 0.087l0.002 0.001c0.032 0.014 0.070 0.023 0.109 0.023 0.011 0 0.023-0.001 0.034-0.002l-0.001 0c0.007 0.001 0.015 0.001 0.023 0.001 0.065 0 0.125-0.022 0.173-0.060l-0.001 0c0.043-0.040 0.073-0.094 0.082-0.155l0-0.001c0.013-0.085 0.019-0.172 0.017-0.258v-0.261h0.55v0.238c0.001 0.020 0.002 0.043 0.002 0.066 0 0.226-0.072 0.434-0.194 0.604l0.002-0.003c-0.126 0.158-0.342 0.236-0.659 0.236s-0.556-0.084-0.692-0.259zM32.777 15.425c-0.139-0.165-0.209-0.406-0.209-0.724v-1.116c0-0.315 0.070-0.553 0.209-0.715s0.371-0.242 0.697-0.242c0.324 0 0.555 0.081 0.694 0.242s0.21 0.4 0.21 0.715v1.116c0 0.315-0.071 0.556-0.212 0.723s-0.371 0.249-0.692 0.249c-0.32 0-0.557-0.084-0.697-0.248zM33.731 15.158c0.050-0.103 0.073-0.217 0.066-0.33v-1.366c0.001-0.011 0.001-0.024 0.001-0.037 0-0.104-0.024-0.203-0.068-0.291l0.002 0.004c-0.028-0.039-0.066-0.070-0.111-0.088l-0.002-0.001c-0.032-0.014-0.069-0.021-0.107-0.021-0.013 0-0.026 0.001-0.039 0.003l0.001-0c-0.011-0.002-0.024-0.002-0.037-0.002-0.039 0-0.076 0.008-0.11 0.022l0.002-0.001c-0.046 0.020-0.084 0.050-0.112 0.088l-0.001 0.001c-0.050 0.101-0.073 0.212-0.066 0.324v1.372c-0.007 0.114 0.016 0.227 0.066 0.33 0.032 0.034 0.070 0.062 0.114 0.081l0.002 0.001c0.042 0.018 0.090 0.029 0.142 0.029s0.1-0.011 0.144-0.030l-0.002 0.001c0.045-0.020 0.084-0.047 0.116-0.082l0-0v-0.006zM35.040 12.661h0.593l0.446 2.059 0.456-2.059h0.577l0.058 2.971h-0.426l-0.045-2.065-0.44 2.065h-0.342l-0.456-2.072-0.042 2.072h-0.431l0.053-2.971zM37.833 12.661h0.923c0.532 0 0.797 0.281 0.797 0.844 0 0.539-0.28 0.807-0.84 0.807h-0.314v1.32h-0.57l0.004-2.971zM38.622 13.931c0.056 0.007 0.113 0.002 0.167-0.014s0.104-0.043 0.146-0.080c0.065-0.1 0.094-0.218 0.082-0.335 0-0.010 0.001-0.022 0.001-0.033 0-0.084-0.010-0.165-0.029-0.243l0.001 0.007c-0.009-0.031-0.023-0.059-0.042-0.082l0 0c-0.020-0.024-0.044-0.044-0.071-0.059l-0.001-0.001c-0.066-0.030-0.143-0.048-0.224-0.048-0.011 0-0.021 0-0.032 0.001l0.001-0h-0.221v0.887h0.221zM40.375 12.661h0.612l0.628 2.971h-0.531l-0.124-0.685h-0.546l-0.128 0.685h-0.539l0.628-2.971zM40.898 14.603l-0.213-1.247-0.213 1.247h0.426zM42.122 12.661h0.399l0.763 1.695v-1.695h0.473v2.971h-0.379l-0.768-1.769v1.769h-0.489l0.001-2.971zM44.865 14.5l-0.635-1.834h0.535l0.387 1.178 0.364-1.178h0.523l-0.627 1.834v1.133h-0.547v-1.133zM31.365 16.931v0.155h-0.465v1.207h-0.195v-1.207h-0.467v-0.155h1.127zM32.823 18.294h-0.15c-0.001 0-0.003 0-0.004 0-0.014 0-0.028-0.005-0.038-0.013l0 0c-0.011-0.008-0.020-0.018-0.025-0.031l-0-0-0.134-0.324h-0.645l-0.134 0.324c-0.004 0.014-0.011 0.027-0.021 0.037l0-0c-0.011 0.008-0.024 0.013-0.039 0.013-0.001 0-0.002-0-0.004-0h-0.15l0.57-1.362h0.198l0.577 1.357zM31.879 17.788h0.538l-0.228-0.555c-0.015-0.034-0.029-0.077-0.041-0.121l-0.002-0.007-0.021 0.072-0.021 0.057-0.226 0.554zM33.805 18.16c0.036 0.002 0.071 0.002 0.107 0 0.031-0.003 0.062-0.009 0.091-0.016 0.033-0.008 0.060-0.016 0.087-0.026l-0.004 0.002c0.025-0.010 0.050-0.021 0.076-0.033v-0.306h-0.228c-0.001 0-0.002 0-0.003 0-0.011 0-0.021-0.004-0.028-0.011l0 0c-0.007-0.006-0.011-0.014-0.011-0.024 0-0 0-0.001 0-0.001v0-0.105h0.442v0.522c-0.069 0.047-0.149 0.085-0.234 0.109l-0.006 0.001c-0.040 0.012-0.088 0.022-0.138 0.028l-0.005 0c-0.049 0.005-0.106 0.009-0.164 0.009-0.001 0-0.002 0-0.002 0h0c-0.002 0-0.004 0-0.006 0-0.101 0-0.197-0.019-0.286-0.053l0.005 0.002c-0.088-0.034-0.164-0.082-0.228-0.143l0 0c-0.062-0.060-0.111-0.132-0.146-0.212l-0.002-0.004c-0.033-0.081-0.052-0.175-0.052-0.273 0-0.003 0-0.007 0-0.010v0c-0-0.003-0-0.006-0-0.009 0-0.099 0.019-0.194 0.053-0.281l-0.002 0.005c0.033-0.081 0.083-0.154 0.147-0.216 0.065-0.061 0.143-0.11 0.228-0.142 0.098-0.035 0.201-0.052 0.305-0.051 0.053 0 0.106 0.004 0.159 0.012 0.046 0.007 0.092 0.019 0.135 0.035 0.040 0.014 0.078 0.032 0.114 0.054s0.068 0.045 0.1 0.071l-0.055 0.084c-0.005 0.008-0.011 0.014-0.018 0.018l-0 0c-0.007 0.004-0.016 0.007-0.026 0.007h-0c-0.013-0-0.025-0.004-0.035-0.011l0 0c-0.023-0.012-0.041-0.022-0.059-0.034l0.003 0.002c-0.022-0.013-0.047-0.026-0.073-0.036l-0.003-0.001c-0.029-0.012-0.064-0.022-0.101-0.029l-0.004-0.001c-0.041-0.008-0.089-0.012-0.137-0.012-0.003 0-0.005 0-0.008 0h0c-0.002-0-0.004-0-0.007-0-0.076 0-0.15 0.014-0.217 0.039l0.004-0.001c-0.065 0.025-0.121 0.062-0.167 0.108l0-0c-0.047 0.049-0.084 0.107-0.106 0.17-0.024 0.068-0.038 0.146-0.038 0.227s0.014 0.159 0.040 0.232l-0.002-0.005c0.025 0.064 0.064 0.123 0.114 0.172 0.047 0.047 0.103 0.083 0.166 0.108 0.073 0.023 0.149 0.033 0.226 0.027zM35.621 18.138h0.622v0.155h-0.812v-1.363h0.195l-0.005 1.207zM36.891 18.293h-0.195v-1.362h0.195v1.363zM37.616 16.938c0.012 0.006 0.021 0.015 0.029 0.025l0 0 0.833 1.027c-0.001-0.007-0.001-0.016-0.001-0.024s0-0.017 0.001-0.026l-0 0.001v-1.015h0.17v1.368h-0.098c-0.002 0-0.004 0-0.007 0-0.013 0-0.025-0.003-0.036-0.008l0.001 0c-0.012-0.007-0.022-0.016-0.030-0.026l-0-0-0.832-1.026v1.059h-0.163v-1.362h0.101c0.011 0 0.022 0.002 0.032 0.006zM40.083 16.931v0.15h-0.691v0.45h0.56v0.144h-0.56v0.465h0.691v0.15h-0.891v-1.359h0.891zM19.663 8.517l8.652 2.326v8.15l-8.652-2.324v-8.151zM19.109 7.822v9.242l9.761 2.625v-9.241l-9.761-2.625z"></path>
<path   d="M24.34 23.979l-9.762-2.627v-9.241l9.762 2.626v9.242z"></path>
<path   d="M19.27 8.412l8.54 2.297-3.632 3.439-8.54-2.298 3.633-3.438zM19.109 7.822l-4.531 4.289 9.762 2.626 4.529-4.289-9.761-2.626zM24.889 23.459l3.98-3.769-3.98-1.071v4.84z"></path>
</symbol>
<symbol id="icon-email-icon" viewBox="0 0 32 32">
<path d="M26.667 5.333h-21.333c-1.467 0-2.652 1.2-2.652 2.667l-0.014 16c0 1.467 1.2 2.667 2.667 2.667h21.333c1.467 0 2.667-1.2 2.667-2.667v-16c0-1.467-1.2-2.667-2.667-2.667zM26.133 11.001l-9.426 5.892c-0.201 0.126-0.446 0.2-0.708 0.2s-0.506-0.075-0.713-0.204l0.006 0.003-9.426-5.892c-0.336-0.201-0.557-0.562-0.557-0.975 0-0.625 0.507-1.132 1.132-1.132 0.233 0 0.449 0.070 0.629 0.19l-0.004-0.003 8.933 5.586 8.933-5.588c0.176-0.118 0.392-0.188 0.624-0.188 0.625 0 1.132 0.507 1.132 1.132 0 0.413-0.221 0.775-0.552 0.972l-0.005 0.003z"></path>
</symbol>
<symbol id="icon-phone-modal-icon" viewBox="0 0 32 32">
<path d="M24.882 19.774l-3.268-0.373c-0.090-0.011-0.194-0.018-0.3-0.018-0.707 0-1.347 0.287-1.81 0.75l-2.368 2.368c-3.669-1.894-6.585-4.81-8.427-8.372l-0.051-0.108 2.382-2.377c0.464-0.463 0.752-1.104 0.752-1.812 0-0.105-0.006-0.209-0.019-0.31l0.001 0.012-0.373-3.243c-0.155-1.287-1.24-2.276-2.557-2.276-0.001 0-0.002 0-0.003 0h-2.227c-1.454 0-2.663 1.209-2.574 2.661 0.683 10.987 9.468 19.762 20.444 20.444 1.452 0.089 2.663-1.12 2.663-2.574v-2.226c0-0.004 0-0.008 0-0.012 0-1.308-0.985-2.386-2.253-2.532l-0.012-0.001z"></path>
</symbol>
<symbol id="icon-person-icon" viewBox="0 0 32 32">
<path d="M16 16c2.946 0 5.333-2.388 5.333-5.333s-2.388-5.333-5.333-5.333v0c-2.946 0-5.333 2.388-5.333 5.333s2.388 5.333 5.333 5.333v0zM16 18.667c-3.561 0-10.667 1.787-10.667 5.333v1.333c0 0.732 0.599 1.333 1.333 1.333h18.667c0.732 0 1.333-0.601 1.333-1.333v-1.333c0-3.547-7.108-5.333-10.667-5.333z"></path>
</symbol>
<symbol id="icon-close-icon" viewBox="0 0 32 32">
<path d="M26.667 7.303l-1.97-1.97-7.808 7.808-7.808-7.808-1.97 1.97 7.808 7.808-7.808 7.808 1.97 1.97 7.808-7.808 7.808 7.808 1.97-1.97-7.808-7.808 7.808-7.808z"></path>
</symbol>
</defs></svg>